<svg version="1.1" id="Capa_1" xmlns="http://www.w3.org/2000/svg" xmlns:xlink="http://www.w3.org/1999/xlink" x="0px" y="0px"
	 width="1920px" height="1980px" viewBox="0 0 1920 1980" enable-background="new 0 0 1920 1980" xml:space="preserve">
<path fill="none" stroke="#202020" stroke-width="75" stroke-miterlimit="10" d="M863.648,640.696H534.555V382.443h329.093V640.696z
	 M596.11,1486.336l82.272-253.029H534.555V979.643h329.093v253.664l-143.809,253.029H596.11z"/>
<g>
	<path fill="none" stroke="#202020" stroke-width="75" d="M991.182,1490.865c52.982-93.799,91.545-185.41,115.682-274.846
		c24.121-89.439,36.191-182.242,36.191-278.403c0-96.139-12.07-188.941-36.191-278.396
		c-24.137-89.436-62.699-181.057-115.682-274.852h256.279c51.412,70.931,90.563,153.882,117.463,248.847
		c26.881,94.977,40.34,196.441,40.34,304.401c0,107.983-13.459,209.448-40.34,304.401c-26.9,94.961-66.051,177.904-117.463,248.848
		H991.182z"/>
</g>
<path fill="none" stroke="#000000" stroke-width="75" stroke-miterlimit="10" d="M860.616,381.48"/>
</svg>